<svg width="14" height="14" viewBox="0 0 14 14" fill="none" xmlns="http://www.w3.org/2000/svg">
<g style="mix-blend-mode:plus-darker">
<path d="M6.54932 4.53516C6.6001 4.39128 6.68685 4.29606 6.80957 4.24951C6.93652 4.19873 7.06136 4.19873 7.18408 4.24951C7.31104 4.29606 7.3999 4.39128 7.45068 4.53516L8.70117 8.15967H5.30518L6.54932 4.53516ZM9.65967 12.7744C9.5835 12.7871 9.50944 12.7765 9.4375 12.7427C9.36979 12.7088 9.30843 12.6623 9.25342 12.603C9.20264 12.548 9.16878 12.4824 9.15186 12.4062L8.25049 8.41357L8.51709 8.56592H5.48291L5.74951 8.41357L4.84814 12.4062C4.81852 12.5332 4.7487 12.6305 4.63867 12.6982C4.52865 12.7702 4.41016 12.7956 4.2832 12.7744C4.15202 12.7533 4.04834 12.6855 3.97217 12.5713C3.896 12.4613 3.87272 12.3428 3.90234 12.2158L4.80371 8.24219C4.84603 8.07292 4.93066 7.93115 5.05762 7.81689C5.18457 7.6984 5.33268 7.63916 5.50195 7.63916H8.4917C8.6652 7.63916 8.81543 7.6984 8.94238 7.81689C9.06934 7.93115 9.15397 8.07503 9.19629 8.24854L10.0913 12.2158C10.1252 12.3597 10.0892 12.4867 9.9834 12.5967C9.8776 12.7067 9.76969 12.766 9.65967 12.7744ZM6.99365 13.9741C6.08805 13.9741 5.23958 13.8027 4.44824 13.46C3.6569 13.1214 2.96077 12.6517 2.35986 12.0508C1.75895 11.4541 1.28711 10.7601 0.944336 9.96875C0.605794 9.17318 0.436523 8.32259 0.436523 7.41699C0.436523 6.51139 0.605794 5.66292 0.944336 4.87158C1.28711 4.07601 1.75895 3.37777 2.35986 2.77686C2.96077 2.17594 3.6569 1.70622 4.44824 1.36768C5.23958 1.02913 6.08805 0.859863 6.99365 0.859863C7.89925 0.859863 8.74772 1.02913 9.53906 1.36768C10.3346 1.70622 11.0329 2.17594 11.6338 2.77686C12.2347 3.37777 12.7044 4.07601 13.043 4.87158C13.3857 5.66292 13.5571 6.51139 13.5571 7.41699C13.5571 8.32259 13.3857 9.17318 13.043 9.96875C12.7044 10.7601 12.2347 11.4541 11.6338 12.0508C11.0329 12.6517 10.3346 13.1214 9.53906 13.46C8.74772 13.8027 7.89925 13.9741 6.99365 13.9741ZM6.99365 12.6792C7.72152 12.6792 8.40283 12.5417 9.0376 12.2666C9.67236 11.9958 10.231 11.6191 10.7134 11.1367C11.2 10.6543 11.5788 10.0957 11.8496 9.46094C12.1204 8.82617 12.2559 8.14486 12.2559 7.41699C12.2559 6.68913 12.1204 6.00781 11.8496 5.37305C11.5788 4.73405 11.2 4.17546 10.7134 3.69727C10.231 3.21484 9.67236 2.83822 9.0376 2.56738C8.40283 2.29232 7.72152 2.15479 6.99365 2.15479C6.27002 2.15479 5.5887 2.29232 4.94971 2.56738C4.31494 2.83822 3.75635 3.21484 3.27393 3.69727C2.7915 4.17546 2.41276 4.73405 2.1377 5.37305C1.86686 6.00781 1.73145 6.68913 1.73145 7.41699C1.73145 8.14486 1.86686 8.82617 2.1377 9.46094C2.41276 10.0957 2.7915 10.6543 3.27393 11.1367C3.75635 11.6191 4.31494 11.9958 4.94971 12.2666C5.5887 12.5417 6.27002 12.6792 6.99365 12.6792Z" fill="black" fill-opacity="0.5"/>
</g>
</svg>
