<svg width="14" height="14" viewBox="0 0 14 14" fill="none" xmlns="http://www.w3.org/2000/svg">
<path d="M4.14795 13.0674C3.03613 13.0674 2.48291 12.5088 2.48291 11.3862V3.23828C2.48291 2.12109 3.0415 1.55176 4.14795 1.55176H6.69922C7.30078 1.55176 7.63916 1.64307 8.04736 2.06201L11.0068 5.0752C11.4365 5.51562 11.5171 5.81641 11.5171 6.50928V11.3862C11.5171 12.5034 10.9639 13.0674 9.85205 13.0674H4.14795ZM4.18555 12.2026H9.80908C10.3677 12.2026 10.6523 11.9072 10.6523 11.3701V6.54688H7.59082C6.91943 6.54688 6.58105 6.21387 6.58105 5.53711V2.4165H4.19092C3.63232 2.4165 3.34766 2.72266 3.34766 3.25439V11.3701C3.34766 11.9072 3.63232 12.2026 4.18555 12.2026ZM7.6875 5.73584H10.4858L7.39209 2.58301V5.43506C7.39209 5.6499 7.47266 5.73584 7.6875 5.73584Z" fill="#007AFF"/>
</svg>
