<svg width="12" height="12" viewBox="0 0 12 12" fill="none" xmlns="http://www.w3.org/2000/svg">
<path d="M6 11.7881C2.97607 11.7881 0.521484 9.3335 0.521484 6.30957C0.521484 3.28564 2.97607 0.831055 6 0.831055C9.02393 0.831055 11.4785 3.28564 11.4785 6.30957C11.4785 9.3335 9.02393 11.7881 6 11.7881ZM6 8.13574C7.6167 8.13574 8.85742 8.71582 9.3999 9.35498C10.125 8.54932 10.5654 7.48047 10.5654 6.30957C10.5654 3.78516 8.52441 1.74414 6 1.74414C3.47559 1.74414 1.43457 3.78516 1.43457 6.30957C1.43457 7.48047 1.875 8.54932 2.6001 9.35498C3.14258 8.71582 4.38867 8.13574 6 8.13574ZM6 7.22266C4.96875 7.21191 4.16309 6.35254 4.15771 5.19775C4.15234 4.11279 4.96875 3.21582 6 3.21582C7.03125 3.21582 7.84229 4.11279 7.84229 5.19775C7.84229 6.35254 7.03662 7.2334 6 7.22266Z" fill="#007AFF"/>
</svg>
