<svg width="14" height="14" viewBox="0 0 14 14" fill="none" xmlns="http://www.w3.org/2000/svg">
<path d="M2.00488 10.2637C0.876953 10.2637 0.318359 9.71045 0.318359 8.59863V3.53369C0.318359 2.42725 0.876953 1.86865 2.00488 1.86865H9.3418C10.459 1.86865 11.0283 2.42725 11.0283 3.53369V4.35547H11.9951C13.1123 4.35547 13.6816 4.91406 13.6816 6.02051V11.0854C13.6816 12.1919 13.1123 12.7505 11.9951 12.7505H4.6582C3.53027 12.7505 2.97168 12.1973 2.97168 11.0854V10.2637H2.00488ZM2.01562 9.39893H2.97168V6.02051C2.97168 4.91406 3.53027 4.35547 4.6582 4.35547H10.1636V3.58203C10.1636 3.02344 9.85742 2.7334 9.32568 2.7334H2.01562C1.47852 2.7334 1.18311 3.02344 1.18311 3.58203V8.55566C1.18311 9.11426 1.47852 9.39893 2.01562 9.39893ZM3.83643 6.06885V10.543L5.05029 9.48486C5.25977 9.30762 5.4585 9.22168 5.66797 9.22168C5.89893 9.22168 6.11914 9.30762 6.32324 9.49561L7.18799 10.2744L9.35791 8.35156C9.57812 8.15283 9.81445 8.06689 10.083 8.06689C10.3408 8.06689 10.5986 8.16357 10.8081 8.35693L12.8169 10.2529V6.06885C12.8169 5.51025 12.5107 5.22021 11.979 5.22021H4.66895C4.13184 5.22021 3.83643 5.51025 3.83643 6.06885ZM6.80127 8.4751C6.17285 8.4751 5.6626 7.9541 5.6626 7.32568C5.6626 6.70801 6.17285 6.18701 6.80127 6.18701C7.42432 6.18701 7.93457 6.70801 7.93457 7.32568C7.93457 7.9541 7.42432 8.4751 6.80127 8.4751Z" fill="#007AFF"/>
</svg>
