<svg width="14" height="14" viewBox="0 0 14 14" fill="none" xmlns="http://www.w3.org/2000/svg">
<path d="M7 12.7881C3.97607 12.7881 1.52148 10.3335 1.52148 7.30957C1.52148 5.46729 2.41846 3.87207 3.8042 2.87305C4.04053 2.69043 4.34668 2.75488 4.48096 2.96973C4.61523 3.19531 4.54541 3.44775 4.3252 3.61426C3.18652 4.43066 2.43457 5.77881 2.43457 7.30957C2.43457 9.83398 4.47559 11.875 7 11.875C9.52441 11.875 11.5654 9.83398 11.5654 7.30957C11.5654 5.12891 10.0562 3.32959 8.03662 2.8623V3.63574C8.03662 4.01709 7.77344 4.11377 7.47803 3.90967L5.76465 2.70654C5.52295 2.53467 5.51758 2.27686 5.76465 2.09961L7.47266 0.896484C7.77344 0.687012 8.03662 0.783691 8.03662 1.17041V1.93311C10.5503 2.40576 12.4785 4.62939 12.4785 7.30957C12.4785 10.3335 10.0239 12.7881 7 12.7881Z" fill="#007AFF"/>
</svg>
