<svg width="12" height="11" viewBox="0 0 12 11" fill="none" xmlns="http://www.w3.org/2000/svg">
<path d="M0.885254 3.78955C0.885254 1.88818 2.19043 0.54541 3.93066 0.54541C4.92432 0.54541 5.74072 1.02344 6.21875 1.74316C6.70752 1.01807 7.51318 0.54541 8.50684 0.54541C10.2471 0.54541 11.5522 1.88818 11.5522 3.78955C11.5522 6.07764 9.63477 8.32812 6.61084 10.2617C6.49268 10.3315 6.33154 10.4067 6.21875 10.4067C6.10596 10.4067 5.94482 10.3315 5.83203 10.2617C2.80273 8.32812 0.885254 6.07764 0.885254 3.78955ZM1.75 3.78955C1.75 5.7876 3.86084 7.94141 6.11133 9.43457C6.15967 9.47217 6.19727 9.49902 6.21875 9.49902C6.24023 9.49902 6.27783 9.47217 6.33154 9.43457C8.57666 7.94141 10.6875 5.7876 10.6875 3.78955C10.6875 2.36084 9.76367 1.41016 8.51758 1.41016C7.51318 1.41016 6.95459 2.04932 6.58398 2.57568C6.42822 2.78516 6.34766 2.84961 6.21875 2.84961C6.08984 2.84961 5.99854 2.79053 5.85352 2.57568C5.50977 2.03857 4.92969 1.41016 3.91992 1.41016C2.67383 1.41016 1.75 2.36084 1.75 3.78955Z" fill="#007AFF"/>
</svg>
