<svg width="14" height="14" viewBox="0 0 14 14" fill="none" xmlns="http://www.w3.org/2000/svg">
<path d="M7 12.7881C3.97607 12.7881 1.52148 10.3335 1.52148 7.30957C1.52148 4.28564 3.97607 1.83105 7 1.83105C10.0239 1.83105 12.4785 4.28564 12.4785 7.30957C12.4785 10.3335 10.0239 12.7881 7 12.7881ZM7 11.875C9.52441 11.875 11.5654 9.83398 11.5654 7.30957C11.5654 4.78516 9.52441 2.74414 7 2.74414C4.47559 2.74414 2.43457 4.78516 2.43457 7.30957C2.43457 9.83398 4.47559 11.875 7 11.875ZM6.95166 5.45117C6.56494 5.45117 6.25342 5.13965 6.25342 4.74756C6.25342 4.35547 6.56494 4.04395 6.95166 4.04395C7.34375 4.04395 7.6499 4.35547 7.6499 4.74756C7.6499 5.13965 7.34375 5.45117 6.95166 5.45117ZM6.06006 10.3174C5.83984 10.3174 5.66797 10.1562 5.66797 9.93604C5.66797 9.72656 5.83984 9.56006 6.06006 9.56006H6.72607V7.1001H6.15137C5.93115 7.1001 5.75928 6.93896 5.75928 6.71875C5.75928 6.50928 5.93115 6.34277 6.15137 6.34277H7.16113C7.43506 6.34277 7.58008 6.53613 7.58008 6.82617V9.56006H8.24609C8.46631 9.56006 8.63818 9.72656 8.63818 9.93604C8.63818 10.1562 8.46631 10.3174 8.24609 10.3174H6.06006Z" fill="#007AFF"/>
</svg>
