<svg width="20" height="20" viewBox="0 0 20 20" fill="none" xmlns="http://www.w3.org/2000/svg">
<path d="M17.65 1H2.35C1.99196 1 1.64858 1.14223 1.39541 1.39541C1.14223 1.64858 1 1.99196 1 2.35V17.65C1 18.008 1.14223 18.3514 1.39541 18.6046C1.64858 18.8578 1.99196 19 2.35 19H17.65C18.008 19 18.3514 18.8578 18.6046 18.6046C18.8578 18.3514 19 18.008 19 17.65V2.35C19 1.99196 18.8578 1.64858 18.6046 1.39541C18.3514 1.14223 18.008 1 17.65 1ZM6.4 16.3H3.7V8.2H6.4V16.3ZM5.05 6.625C4.74056 6.61616 4.4406 6.51632 4.18758 6.33797C3.93456 6.15962 3.7397 5.91066 3.62737 5.6222C3.51503 5.33374 3.49019 5.01857 3.55595 4.71607C3.6217 4.41358 3.77515 4.13716 3.9971 3.92138C4.21906 3.70559 4.49968 3.55999 4.80391 3.50278C5.10814 3.44556 5.42248 3.47927 5.70766 3.59969C5.99284 3.7201 6.23622 3.92189 6.40737 4.17983C6.57853 4.43778 6.66987 4.74044 6.67 5.05C6.66289 5.47331 6.4885 5.8766 6.18495 6.17173C5.88139 6.46685 5.47335 6.62982 5.05 6.625ZM16.3 16.3H13.6V12.034C13.6 10.756 13.06 10.297 12.358 10.297C12.1522 10.3107 11.9511 10.3649 11.7663 10.4566C11.5815 10.5482 11.4166 10.6755 11.2811 10.831C11.1457 10.9866 11.0422 11.1674 10.9768 11.363C10.9114 11.5586 10.8853 11.7652 10.9 11.971C10.8955 12.0129 10.8955 12.0551 10.9 12.097V16.3H8.2V8.2H10.81V9.37C11.0733 8.9695 11.435 8.64331 11.8605 8.42269C12.286 8.20207 12.761 8.0944 13.24 8.11C14.635 8.11 16.264 8.884 16.264 11.404L16.3 16.3Z" fill="white"/>
</svg>
