<svg width="14" height="15" viewBox="0 0 14 15" fill="none" xmlns="http://www.w3.org/2000/svg">
<g style="mix-blend-mode:plus-darker">
<path d="M1.85791 14.4282C1.28239 14.4282 0.846517 14.2822 0.550293 13.9902C0.254069 13.7025 0.105957 13.2666 0.105957 12.6826V6.41113C0.105957 5.82292 0.254069 5.38493 0.550293 5.09717C0.846517 4.80518 1.28239 4.65918 1.85791 4.65918H8.13574C8.71549 4.65918 9.15348 4.80518 9.44971 5.09717C9.74593 5.38493 9.89404 5.82292 9.89404 6.41113V12.6826C9.89404 13.2666 9.74593 13.7025 9.44971 13.9902C9.15348 14.2822 8.71549 14.4282 8.13574 14.4282H1.85791ZM1.93408 13.2095H8.06592C8.27751 13.2095 8.42985 13.1629 8.52295 13.0698C8.62028 12.981 8.66895 12.8265 8.66895 12.6064V6.48096C8.66895 6.2609 8.62028 6.10645 8.52295 6.01758C8.42985 5.92448 8.27751 5.87793 8.06592 5.87793H1.93408C1.72673 5.87793 1.57227 5.92448 1.4707 6.01758C1.37337 6.10645 1.32471 6.2609 1.32471 6.48096V12.6064C1.32471 12.8265 1.37337 12.981 1.4707 13.0698C1.57227 13.1629 1.72673 13.2095 1.93408 13.2095ZM12.5854 6.07471C12.4627 6.07471 12.3569 6.03027 12.2681 5.94141C12.1792 5.84831 12.1348 5.7404 12.1348 5.61768V4.61475C12.1348 4.17041 12.0417 3.77686 11.8555 3.43408C11.6735 3.08708 11.4154 2.81624 11.0811 2.62158C10.751 2.42269 10.3617 2.32324 9.91309 2.32324H9.70996V3.13574C9.70996 3.37272 9.62956 3.52083 9.46875 3.58008C9.30794 3.63932 9.13444 3.60124 8.94824 3.46582L7.28516 2.23438C7.14974 2.13281 7.08203 2.0249 7.08203 1.91064C7.08626 1.79215 7.15397 1.68001 7.28516 1.57422L8.94824 0.336426C9.13444 0.201009 9.30794 0.162923 9.46875 0.222168C9.62956 0.277181 9.70996 0.427409 9.70996 0.672852V1.46631H9.91309C10.5309 1.46631 11.0747 1.59961 11.5444 1.86621C12.0184 2.12858 12.3866 2.49674 12.6489 2.9707C12.9155 3.44466 13.0488 3.99268 13.0488 4.61475V5.61768C13.0488 5.7404 13.0023 5.84831 12.9092 5.94141C12.8203 6.03027 12.7124 6.07471 12.5854 6.07471Z" fill="black" fill-opacity="0.5"/>
</g>
</svg>
