<svg width="14" height="13" viewBox="0 0 14 13" fill="none" xmlns="http://www.w3.org/2000/svg">
<path d="M0.684082 5.28711C0.684082 4.56771 0.819499 3.89062 1.09033 3.25586C1.36117 2.62109 1.73779 2.06462 2.22021 1.58643C2.70264 1.104 3.25911 0.727376 3.88965 0.456543C4.52441 0.18571 5.20361 0.050293 5.92725 0.050293C6.65088 0.050293 7.32796 0.18571 7.9585 0.456543C8.59326 0.727376 9.15186 1.104 9.63428 1.58643C10.1167 2.06462 10.4933 2.62109 10.7642 3.25586C11.035 3.89062 11.1704 4.56771 11.1704 5.28711C11.1704 5.82878 11.09 6.34505 10.9292 6.83594C10.7726 7.32682 10.5526 7.77751 10.269 8.18799L13.0049 10.9365C13.1064 11.0423 13.1826 11.1587 13.2334 11.2856C13.2884 11.4168 13.3159 11.5565 13.3159 11.7046C13.3159 11.9077 13.2694 12.0918 13.1763 12.2568C13.0832 12.4219 12.9562 12.5509 12.7954 12.644C12.6346 12.7414 12.4484 12.79 12.2368 12.79C12.0929 12.79 11.9533 12.7646 11.8179 12.7139C11.6825 12.6631 11.5618 12.5848 11.4561 12.479L8.69482 9.71777C8.29704 9.97168 7.86328 10.1727 7.39355 10.3208C6.92806 10.4647 6.43929 10.5366 5.92725 10.5366C5.20361 10.5366 4.52441 10.4012 3.88965 10.1304C3.25911 9.85954 2.70264 9.48291 2.22021 9.00049C1.73779 8.51807 1.36117 7.95947 1.09033 7.32471C0.819499 6.68994 0.684082 6.01074 0.684082 5.28711ZM2.18213 5.28711C2.18213 5.80762 2.27734 6.29427 2.46777 6.74707C2.66243 7.19987 2.93115 7.59766 3.27393 7.94043C3.62093 8.2832 4.02083 8.55192 4.47363 8.74658C4.92643 8.94124 5.41097 9.03857 5.92725 9.03857C6.44352 9.03857 6.92806 8.94124 7.38086 8.74658C7.83366 8.55192 8.23145 8.2832 8.57422 7.94043C8.91699 7.59766 9.18571 7.19987 9.38037 6.74707C9.57503 6.29427 9.67236 5.80762 9.67236 5.28711C9.67236 4.77083 9.57503 4.28841 9.38037 3.83984C9.18571 3.38704 8.91699 2.98926 8.57422 2.64648C8.23145 2.29948 7.83366 2.02865 7.38086 1.83398C6.92806 1.63932 6.44352 1.54199 5.92725 1.54199C5.41097 1.54199 4.92643 1.63932 4.47363 1.83398C4.02083 2.02865 3.62093 2.29948 3.27393 2.64648C2.93115 2.98926 2.66243 3.38704 2.46777 3.83984C2.27734 4.28841 2.18213 4.77083 2.18213 5.28711Z" fill="black"/>
<path d="M0.684082 5.28711C0.684082 4.56771 0.819499 3.89062 1.09033 3.25586C1.36117 2.62109 1.73779 2.06462 2.22021 1.58643C2.70264 1.104 3.25911 0.727376 3.88965 0.456543C4.52441 0.18571 5.20361 0.050293 5.92725 0.050293C6.65088 0.050293 7.32796 0.18571 7.9585 0.456543C8.59326 0.727376 9.15186 1.104 9.63428 1.58643C10.1167 2.06462 10.4933 2.62109 10.7642 3.25586C11.035 3.89062 11.1704 4.56771 11.1704 5.28711C11.1704 5.82878 11.09 6.34505 10.9292 6.83594C10.7726 7.32682 10.5526 7.77751 10.269 8.18799L13.0049 10.9365C13.1064 11.0423 13.1826 11.1587 13.2334 11.2856C13.2884 11.4168 13.3159 11.5565 13.3159 11.7046C13.3159 11.9077 13.2694 12.0918 13.1763 12.2568C13.0832 12.4219 12.9562 12.5509 12.7954 12.644C12.6346 12.7414 12.4484 12.79 12.2368 12.79C12.0929 12.79 11.9533 12.7646 11.8179 12.7139C11.6825 12.6631 11.5618 12.5848 11.4561 12.479L8.69482 9.71777C8.29704 9.97168 7.86328 10.1727 7.39355 10.3208C6.92806 10.4647 6.43929 10.5366 5.92725 10.5366C5.20361 10.5366 4.52441 10.4012 3.88965 10.1304C3.25911 9.85954 2.70264 9.48291 2.22021 9.00049C1.73779 8.51807 1.36117 7.95947 1.09033 7.32471C0.819499 6.68994 0.684082 6.01074 0.684082 5.28711ZM2.18213 5.28711C2.18213 5.80762 2.27734 6.29427 2.46777 6.74707C2.66243 7.19987 2.93115 7.59766 3.27393 7.94043C3.62093 8.2832 4.02083 8.55192 4.47363 8.74658C4.92643 8.94124 5.41097 9.03857 5.92725 9.03857C6.44352 9.03857 6.92806 8.94124 7.38086 8.74658C7.83366 8.55192 8.23145 8.2832 8.57422 7.94043C8.91699 7.59766 9.18571 7.19987 9.38037 6.74707C9.57503 6.29427 9.67236 5.80762 9.67236 5.28711C9.67236 4.77083 9.57503 4.28841 9.38037 3.83984C9.18571 3.38704 8.91699 2.98926 8.57422 2.64648C8.23145 2.29948 7.83366 2.02865 7.38086 1.83398C6.92806 1.63932 6.44352 1.54199 5.92725 1.54199C5.41097 1.54199 4.92643 1.63932 4.47363 1.83398C4.02083 2.02865 3.62093 2.29948 3.27393 2.64648C2.93115 2.98926 2.66243 3.38704 2.46777 3.83984C2.27734 4.28841 2.18213 4.77083 2.18213 5.28711Z" fill="black" fill-opacity="0.2"/>
</svg>
