<svg width="12" height="16" viewBox="0 0 12 16" fill="none" xmlns="http://www.w3.org/2000/svg">
<g style="mix-blend-mode:plus-darker">
<path d="M2.34375 15.374C1.6582 15.374 1.13981 15.2005 0.788574 14.8535C0.437337 14.5065 0.261719 13.9924 0.261719 13.311V7.09668C0.261719 6.41536 0.437337 5.9012 0.788574 5.5542C1.13981 5.20719 1.6582 5.03369 2.34375 5.03369H4.20996V6.27783H2.41992C2.1237 6.27783 1.8973 6.354 1.74072 6.50635C1.58838 6.65869 1.51221 6.88932 1.51221 7.19824V13.2031C1.51221 13.512 1.58838 13.7427 1.74072 13.895C1.8973 14.0516 2.1237 14.1299 2.41992 14.1299H9.57373C9.86572 14.1299 10.09 14.0516 10.2466 13.895C10.4074 13.7427 10.4878 13.512 10.4878 13.2031V7.19824C10.4878 6.88932 10.4074 6.65869 10.2466 6.50635C10.09 6.354 9.86572 6.27783 9.57373 6.27783H7.78369V5.03369H9.65625C10.3418 5.03369 10.8602 5.20719 11.2114 5.5542C11.5627 5.9012 11.7383 6.41536 11.7383 7.09668V13.311C11.7383 13.9924 11.5627 14.5065 11.2114 14.8535C10.8602 15.2005 10.3418 15.374 9.65625 15.374H2.34375ZM6 10.2515C5.83919 10.2515 5.69954 10.1943 5.58105 10.0801C5.4668 9.96582 5.40967 9.83252 5.40967 9.68018V3.30713L5.46045 2.36768L5.12402 2.76758L4.21631 3.73242C4.11475 3.85091 3.98145 3.91016 3.81641 3.91016C3.67253 3.91016 3.5498 3.86361 3.44824 3.77051C3.34668 3.67318 3.2959 3.55046 3.2959 3.40234C3.2959 3.2627 3.35303 3.13786 3.46729 3.02783L5.54932 1.01562C5.62972 0.939453 5.70589 0.888672 5.77783 0.863281C5.84977 0.833659 5.92383 0.818848 6 0.818848C6.07617 0.818848 6.15023 0.833659 6.22217 0.863281C6.29411 0.888672 6.36816 0.939453 6.44434 1.01562L8.53271 3.02783C8.64274 3.13786 8.69775 3.2627 8.69775 3.40234C8.69775 3.55046 8.64486 3.67318 8.53906 3.77051C8.4375 3.86361 8.31478 3.91016 8.1709 3.91016C8.01432 3.91016 7.88314 3.85091 7.77734 3.73242L6.87598 2.76758L6.53955 2.36768L6.59033 3.30713V9.68018C6.59033 9.83252 6.53109 9.96582 6.4126 10.0801C6.29834 10.1943 6.16081 10.2515 6 10.2515Z" fill="black" fill-opacity="0.5"/>
</g>
</svg>
