<svg width="14" height="14" viewBox="0 0 14 14" fill="none" xmlns="http://www.w3.org/2000/svg">
<path d="M4.75879 12.2524C3.97998 12.2524 3.4751 11.7583 3.4375 10.9902L3.06152 3.17529H2.42236C2.20752 3.17529 2.01953 2.99268 2.01953 2.76709C2.01953 2.54688 2.20752 2.36426 2.42236 2.36426H4.86084V1.54248C4.86084 0.763672 5.36572 0.291016 6.19287 0.291016H8.23389C9.06104 0.291016 9.56592 0.763672 9.56592 1.54248V2.36426H12.0205C12.2407 2.36426 12.418 2.54688 12.418 2.76709C12.418 2.9873 12.2407 3.17529 12.0205 3.17529H11.376L11.0054 10.9849C10.9678 11.7529 10.4521 12.2524 9.68408 12.2524H4.75879ZM5.71484 1.59619V2.36426H8.71191V1.59619C8.71191 1.29004 8.49707 1.09131 8.1748 1.09131H6.25195C5.92969 1.09131 5.71484 1.29004 5.71484 1.59619ZM4.83398 11.4414H9.59814C9.91504 11.4414 10.146 11.2158 10.1567 10.8936L10.5112 3.17529H3.90479L4.28076 10.8936C4.29688 11.2104 4.52783 11.4414 4.83398 11.4414ZM5.62891 10.5229C5.43018 10.5229 5.2959 10.3994 5.29053 10.2061L5.12939 4.46436C5.12402 4.27637 5.2583 4.14746 5.4624 4.14746C5.65576 4.14746 5.79004 4.271 5.79541 4.45898L5.96191 10.2061C5.96729 10.394 5.83301 10.5229 5.62891 10.5229ZM7.21875 10.5229C7.01465 10.5229 6.875 10.394 6.875 10.2061V4.46436C6.875 4.27637 7.01465 4.14746 7.21875 4.14746C7.42285 4.14746 7.56787 4.27637 7.56787 4.46436V10.2061C7.56787 10.394 7.42285 10.5229 7.21875 10.5229ZM8.81396 10.5229C8.60986 10.5229 8.47559 10.394 8.48096 10.2061L8.64209 4.46436C8.64746 4.271 8.78174 4.14746 8.9751 4.14746C9.1792 4.14746 9.31348 4.27637 9.30811 4.46436L9.14697 10.2061C9.1416 10.3994 9.00732 10.5229 8.81396 10.5229Z" fill="#007AFF"/>
</svg>
