<svg width="14" height="15" viewBox="0 0 14 15" fill="none" xmlns="http://www.w3.org/2000/svg">
<path d="M7 14.0376C6.08594 14.0376 5.229 13.8641 4.4292 13.5171C3.62939 13.1743 2.9248 12.7004 2.31543 12.0952C1.71029 11.4901 1.23633 10.7876 0.893555 9.98779C0.550781 9.18799 0.379395 8.33105 0.379395 7.41699C0.379395 6.50293 0.550781 5.646 0.893555 4.84619C1.23633 4.04639 1.71029 3.34391 2.31543 2.73877C2.9248 2.12939 3.62939 1.65332 4.4292 1.31055C5.229 0.967773 6.08594 0.796387 7 0.796387C7.91406 0.796387 8.771 0.967773 9.5708 1.31055C10.3706 1.65332 11.0731 2.12939 11.6782 2.73877C12.2834 3.34391 12.7573 4.04639 13.1001 4.84619C13.4471 5.646 13.6206 6.50293 13.6206 7.41699C13.6206 8.33105 13.4471 9.18799 13.1001 9.98779C12.7573 10.7876 12.2834 11.4901 11.6782 12.0952C11.0731 12.7004 10.3706 13.1743 9.5708 13.5171C8.771 13.8641 7.91406 14.0376 7 14.0376ZM7 12.584C7.71517 12.584 8.38379 12.4507 9.00586 12.1841C9.63216 11.9175 10.1802 11.5472 10.6499 11.0732C11.1239 10.5951 11.4941 10.0449 11.7607 9.42285C12.0316 8.79655 12.167 8.12793 12.167 7.41699C12.167 6.70182 12.0316 6.0332 11.7607 5.41113C11.4941 4.78483 11.1239 4.2347 10.6499 3.76074C10.1802 3.28678 9.63216 2.9165 9.00586 2.6499C8.38379 2.3833 7.71517 2.25 7 2.25C6.28483 2.25 5.6141 2.3833 4.98779 2.6499C4.36572 2.9165 3.81771 3.28678 3.34375 3.76074C2.86979 4.2347 2.49951 4.78483 2.23291 5.41113C1.96631 6.0332 1.83301 6.70182 1.83301 7.41699C1.83301 8.12793 1.96631 8.79655 2.23291 9.42285C2.49951 10.0449 2.86979 10.5951 3.34375 11.0732C3.81771 11.5472 4.36572 11.9175 4.98779 12.1841C5.6141 12.4507 6.28483 12.584 7 12.584ZM11.1514 11.6128C10.7367 11.9683 10.2839 12.2666 9.79297 12.5078C9.30632 12.7533 8.81966 12.9373 8.33301 13.0601C7.84635 13.187 7.40202 13.2505 7 13.2505C6.60645 13.2505 6.16423 13.187 5.67334 13.0601C5.18669 12.9373 4.69792 12.7533 4.20703 12.5078C3.71615 12.2666 3.26546 11.9683 2.85498 11.6128L2.88037 11.4731C3.03695 11.1642 3.30566 10.8701 3.68652 10.5908C4.06738 10.3073 4.53923 10.0767 5.10205 9.89893C5.66488 9.72119 6.29753 9.63232 7 9.63232C7.71094 9.63232 8.34782 9.72119 8.91064 9.89893C9.47347 10.0767 9.9432 10.3073 10.3198 10.5908C10.7007 10.8701 10.9694 11.1663 11.126 11.4795L11.1514 11.6128ZM7 8.61035C6.58952 8.60612 6.21924 8.49821 5.88916 8.28662C5.55908 8.07503 5.29671 7.78939 5.10205 7.42969C4.91162 7.06576 4.81429 6.65739 4.81006 6.20459C4.80583 5.77718 4.90104 5.38574 5.0957 5.03027C5.2946 4.6748 5.55908 4.38916 5.88916 4.17334C6.22347 3.95752 6.59375 3.84961 7 3.84961C7.41048 3.84961 7.78076 3.95752 8.11084 4.17334C8.44092 4.38916 8.70329 4.6748 8.89795 5.03027C9.09684 5.38574 9.19629 5.77718 9.19629 6.20459C9.19629 6.65739 9.09896 7.06576 8.9043 7.42969C8.70964 7.79362 8.44727 8.0835 8.11719 8.29932C7.78711 8.5109 7.41471 8.61458 7 8.61035Z" fill="black"/>
<path d="M7 14.0376C6.08594 14.0376 5.229 13.8641 4.4292 13.5171C3.62939 13.1743 2.9248 12.7004 2.31543 12.0952C1.71029 11.4901 1.23633 10.7876 0.893555 9.98779C0.550781 9.18799 0.379395 8.33105 0.379395 7.41699C0.379395 6.50293 0.550781 5.646 0.893555 4.84619C1.23633 4.04639 1.71029 3.34391 2.31543 2.73877C2.9248 2.12939 3.62939 1.65332 4.4292 1.31055C5.229 0.967773 6.08594 0.796387 7 0.796387C7.91406 0.796387 8.771 0.967773 9.5708 1.31055C10.3706 1.65332 11.0731 2.12939 11.6782 2.73877C12.2834 3.34391 12.7573 4.04639 13.1001 4.84619C13.4471 5.646 13.6206 6.50293 13.6206 7.41699C13.6206 8.33105 13.4471 9.18799 13.1001 9.98779C12.7573 10.7876 12.2834 11.4901 11.6782 12.0952C11.0731 12.7004 10.3706 13.1743 9.5708 13.5171C8.771 13.8641 7.91406 14.0376 7 14.0376ZM7 12.584C7.71517 12.584 8.38379 12.4507 9.00586 12.1841C9.63216 11.9175 10.1802 11.5472 10.6499 11.0732C11.1239 10.5951 11.4941 10.0449 11.7607 9.42285C12.0316 8.79655 12.167 8.12793 12.167 7.41699C12.167 6.70182 12.0316 6.0332 11.7607 5.41113C11.4941 4.78483 11.1239 4.2347 10.6499 3.76074C10.1802 3.28678 9.63216 2.9165 9.00586 2.6499C8.38379 2.3833 7.71517 2.25 7 2.25C6.28483 2.25 5.6141 2.3833 4.98779 2.6499C4.36572 2.9165 3.81771 3.28678 3.34375 3.76074C2.86979 4.2347 2.49951 4.78483 2.23291 5.41113C1.96631 6.0332 1.83301 6.70182 1.83301 7.41699C1.83301 8.12793 1.96631 8.79655 2.23291 9.42285C2.49951 10.0449 2.86979 10.5951 3.34375 11.0732C3.81771 11.5472 4.36572 11.9175 4.98779 12.1841C5.6141 12.4507 6.28483 12.584 7 12.584ZM11.1514 11.6128C10.7367 11.9683 10.2839 12.2666 9.79297 12.5078C9.30632 12.7533 8.81966 12.9373 8.33301 13.0601C7.84635 13.187 7.40202 13.2505 7 13.2505C6.60645 13.2505 6.16423 13.187 5.67334 13.0601C5.18669 12.9373 4.69792 12.7533 4.20703 12.5078C3.71615 12.2666 3.26546 11.9683 2.85498 11.6128L2.88037 11.4731C3.03695 11.1642 3.30566 10.8701 3.68652 10.5908C4.06738 10.3073 4.53923 10.0767 5.10205 9.89893C5.66488 9.72119 6.29753 9.63232 7 9.63232C7.71094 9.63232 8.34782 9.72119 8.91064 9.89893C9.47347 10.0767 9.9432 10.3073 10.3198 10.5908C10.7007 10.8701 10.9694 11.1663 11.126 11.4795L11.1514 11.6128ZM7 8.61035C6.58952 8.60612 6.21924 8.49821 5.88916 8.28662C5.55908 8.07503 5.29671 7.78939 5.10205 7.42969C4.91162 7.06576 4.81429 6.65739 4.81006 6.20459C4.80583 5.77718 4.90104 5.38574 5.0957 5.03027C5.2946 4.6748 5.55908 4.38916 5.88916 4.17334C6.22347 3.95752 6.59375 3.84961 7 3.84961C7.41048 3.84961 7.78076 3.95752 8.11084 4.17334C8.44092 4.38916 8.70329 4.6748 8.89795 5.03027C9.09684 5.38574 9.19629 5.77718 9.19629 6.20459C9.19629 6.65739 9.09896 7.06576 8.9043 7.42969C8.70964 7.79362 8.44727 8.0835 8.11719 8.29932C7.78711 8.5109 7.41471 8.61458 7 8.61035Z" fill="black" fill-opacity="0.2"/>
</svg>
