<svg width="14" height="14" viewBox="0 0 14 14" fill="none" xmlns="http://www.w3.org/2000/svg">
<path d="M11.082 5.11816C10.0562 5.11816 9.21826 4.2749 9.21826 3.25439C9.21826 2.23389 10.0562 1.39062 11.082 1.39062C12.0972 1.39062 12.9404 2.23389 12.9404 3.25439C12.9404 4.2749 12.0972 5.11816 11.082 5.11816ZM2.04785 9.39355V5.20947C2.04785 4.30713 2.12842 3.53906 2.67627 2.99121C3.22412 2.44336 3.99756 2.35742 4.8999 2.35742H8.61133C8.53076 2.59375 8.48779 2.85156 8.49854 3.12012C8.49316 3.15771 8.48779 3.18457 8.48779 3.22217H4.78174C4.21777 3.22217 3.63232 3.29736 3.30469 3.61963C2.98242 3.94727 2.9126 4.52197 2.9126 5.09131V9.54395C2.9126 10.0972 2.98242 10.6719 3.30469 10.9941C3.63232 11.3218 4.2124 11.397 4.76562 11.397H9.23438C9.7876 11.397 10.3677 11.3218 10.6899 10.9941C11.0176 10.6719 11.0874 10.0972 11.0874 9.54395V5.82715C11.125 5.82178 11.1519 5.82178 11.1895 5.81104C11.458 5.82178 11.7158 5.77881 11.9521 5.69824V9.39355C11.9521 10.312 11.8716 11.0801 11.3237 11.6279C10.7759 12.1758 10.0024 12.2617 9.08398 12.2617H4.91064C3.99756 12.2617 3.22412 12.1758 2.67627 11.6279C2.12842 11.0801 2.04785 10.312 2.04785 9.39355Z" fill="#007AFF"/>
</svg>
